<?xml version="1.0" encoding="UTF-8" standalone="no"?>
<!DOCTYPE svg PUBLIC "-//W3C//DTD SVG 1.1//EN" "http://www.w3.org/Graphics/SVG/1.1/DTD/svg11.dtd">
<svg width="100%" height="100%" viewBox="0 0 512 512" version="1.1" xmlns="http://www.w3.org/2000/svg" xmlns:xlink="http://www.w3.org/1999/xlink" xml:space="preserve" xmlns:serif="http://www.serif.com/" style="fill-rule:evenodd;clip-rule:evenodd;stroke-linejoin:round;stroke-miterlimit:2;">
    <g transform="matrix(7.61677,0,0,7.61677,-1696.28,-1572.59)">
        <g transform="matrix(50,0,0,50,225.514,256.285)">
            <path d="M0.455,-0.012L0.122,-0.578C0.115,-0.59 0.112,-0.601 0.112,-0.611C0.112,-0.622 0.116,-0.631 0.126,-0.638C0.135,-0.645 0.145,-0.649 0.155,-0.649C0.167,-0.649 0.176,-0.645 0.181,-0.636L0.513,-0.071C0.52,-0.059 0.524,-0.048 0.524,-0.039C0.524,-0.027 0.519,-0.018 0.51,-0.01C0.501,-0.003 0.491,0 0.48,0C0.469,0 0.46,-0.004 0.455,-0.012Z" style="fill:#adbac7;fill-rule:nonzero;"/>
        </g>
        <g transform="matrix(50,0,0,50,255.715,256.285)">
            <path d="M0.296,-0.083L0.434,-0.171L0.434,-0.43C0.434,-0.442 0.438,-0.451 0.446,-0.46C0.454,-0.468 0.464,-0.472 0.475,-0.472C0.486,-0.472 0.496,-0.468 0.504,-0.46C0.512,-0.451 0.516,-0.442 0.516,-0.43L0.516,-0.041C0.516,-0.03 0.512,-0.02 0.504,-0.012C0.496,-0.004 0.486,-0 0.475,-0C0.464,-0 0.454,-0.004 0.446,-0.012C0.438,-0.02 0.434,-0.03 0.434,-0.041L0.434,-0.073L0.363,-0.027C0.335,-0.009 0.307,-0 0.278,-0L0.24,-0C0.207,-0 0.178,-0.012 0.154,-0.035C0.13,-0.059 0.117,-0.087 0.115,-0.121L0.103,-0.43C0.102,-0.441 0.106,-0.45 0.115,-0.459C0.123,-0.467 0.133,-0.471 0.144,-0.471C0.155,-0.471 0.165,-0.467 0.173,-0.459C0.181,-0.451 0.185,-0.441 0.185,-0.43L0.196,-0.127C0.197,-0.098 0.214,-0.083 0.246,-0.083L0.296,-0.083Z" style="fill:#adbac7;fill-rule:nonzero;"/>
        </g>
    </g>
</svg>
